<mxfile host="app.diagrams.net" modified="2022-02-22T15:20:31.235Z" agent="5.0 (Macintosh; Intel Mac OS X 10_15_7) AppleWebKit/605.1.15 (KHTML, like Gecko) Version/15.2 Safari/605.1.15" etag="AZQD2UN8RIhXSAuYubgg" version="16.6.2" type="github">
  <diagram id="mIwNi9Hr0O3qaFUjUJp0" name="Page-1">
    <mxGraphModel dx="853" dy="648" grid="1" gridSize="10" guides="1" tooltips="1" connect="1" arrows="1" fold="1" page="1" pageScale="1" pageWidth="827" pageHeight="1169" math="0" shadow="0">
      <root>
        <mxCell id="0" />
        <mxCell id="1" parent="0" />
        <mxCell id="J7JKfiULfeazDq4PG8Th-1" value="" style="rounded=0;whiteSpace=wrap;html=1;fillColor=#f5f5f5;strokeColor=#666666;gradientColor=#b3b3b3;" parent="1" vertex="1">
          <mxGeometry x="50" y="120" width="460" height="350" as="geometry" />
        </mxCell>
        <mxCell id="kR7jz3Ybea96GFAlg0oj-2" value="&lt;font style=&quot;font-size: 14px&quot;&gt;Kubernetes (AKS / OnPrem)&lt;/font&gt;" style="text;strokeColor=none;fillColor=none;html=1;fontSize=24;fontStyle=1;verticalAlign=middle;align=center;" vertex="1" parent="1">
          <mxGeometry x="70" y="120" width="190" height="40" as="geometry" />
        </mxCell>
        <mxCell id="kR7jz3Ybea96GFAlg0oj-4" value="Airflow" style="html=1;whiteSpace=wrap;container=1;recursiveResize=0;collapsible=0;dashed=1;dashPattern=1 4;fontSize=14;fillColor=#e6d0de;gradientColor=#d5739d;gradientDirection=east;strokeColor=#996185;" vertex="1" parent="1">
          <mxGeometry x="360" y="170" width="140" height="80" as="geometry" />
        </mxCell>
        <mxCell id="kR7jz3Ybea96GFAlg0oj-32" value="DAG" style="ellipse;shape=doubleEllipse;whiteSpace=wrap;html=1;dashed=1;dashPattern=1 4;fontSize=12;fillColor=#fff2cc;gradientColor=#ffd966;gradientDirection=east;strokeColor=#d6b656;" vertex="1" parent="kR7jz3Ybea96GFAlg0oj-4">
          <mxGeometry x="14" y="50" width="20" height="20" as="geometry" />
        </mxCell>
        <mxCell id="kR7jz3Ybea96GFAlg0oj-29" value="DAG" style="ellipse;shape=doubleEllipse;whiteSpace=wrap;html=1;dashed=1;dashPattern=1 4;fontSize=12;fillColor=#fff2cc;gradientColor=#ffd966;gradientDirection=east;strokeColor=#d6b656;" vertex="1" parent="kR7jz3Ybea96GFAlg0oj-4">
          <mxGeometry x="14" y="10" width="20" height="20" as="geometry" />
        </mxCell>
        <mxCell id="kR7jz3Ybea96GFAlg0oj-24" value="DAG" style="ellipse;shape=doubleEllipse;whiteSpace=wrap;html=1;dashed=1;dashPattern=1 4;fontSize=12;fillColor=#fff2cc;gradientColor=#ffd966;gradientDirection=east;strokeColor=#d6b656;" vertex="1" parent="kR7jz3Ybea96GFAlg0oj-4">
          <mxGeometry x="110" y="50" width="20" height="20" as="geometry" />
        </mxCell>
        <mxCell id="kR7jz3Ybea96GFAlg0oj-38" value="DAG" style="ellipse;shape=doubleEllipse;whiteSpace=wrap;html=1;dashed=1;dashPattern=1 4;fontSize=12;fillColor=#fff2cc;gradientColor=#ffd966;gradientDirection=east;strokeColor=#d6b656;" vertex="1" parent="kR7jz3Ybea96GFAlg0oj-4">
          <mxGeometry x="110" y="10" width="20" height="20" as="geometry" />
        </mxCell>
        <mxCell id="kR7jz3Ybea96GFAlg0oj-34" value="" style="edgeStyle=orthogonalEdgeStyle;rounded=0;orthogonalLoop=1;jettySize=auto;html=1;fontSize=12;entryX=0;entryY=0.5;entryDx=0;entryDy=0;exitX=1.022;exitY=0.4;exitDx=0;exitDy=0;exitPerimeter=0;" edge="1" parent="1" source="kR7jz3Ybea96GFAlg0oj-7" target="kR7jz3Ybea96GFAlg0oj-4">
          <mxGeometry relative="1" as="geometry">
            <mxPoint x="400" y="200" as="targetPoint" />
            <Array as="points">
              <mxPoint x="274" y="210" />
            </Array>
          </mxGeometry>
        </mxCell>
        <mxCell id="kR7jz3Ybea96GFAlg0oj-6" value="" style="shape=table;html=1;whiteSpace=wrap;startSize=0;container=1;collapsible=0;childLayout=tableLayout;dashed=1;dashPattern=1 4;fontSize=14;fillColor=#d5e8d4;gradientColor=#97d077;gradientDirection=east;strokeColor=#82b366;" vertex="1" parent="1">
          <mxGeometry x="90" y="170" width="180" height="60" as="geometry" />
        </mxCell>
        <mxCell id="kR7jz3Ybea96GFAlg0oj-7" value="" style="shape=tableRow;horizontal=0;startSize=0;swimlaneHead=0;swimlaneBody=0;top=0;left=0;bottom=0;right=0;collapsible=0;dropTarget=0;fillColor=none;points=[[0,0.5],[1,0.5]];portConstraint=eastwest;dashed=1;dashPattern=1 4;fontSize=14;" vertex="1" parent="kR7jz3Ybea96GFAlg0oj-6">
          <mxGeometry width="180" height="60" as="geometry" />
        </mxCell>
        <mxCell id="kR7jz3Ybea96GFAlg0oj-8" value="Node1" style="shape=partialRectangle;html=1;whiteSpace=wrap;connectable=0;fillColor=none;top=0;left=0;bottom=0;right=0;overflow=hidden;dashed=1;dashPattern=1 4;fontSize=14;" vertex="1" parent="kR7jz3Ybea96GFAlg0oj-7">
          <mxGeometry width="60" height="60" as="geometry">
            <mxRectangle width="60" height="60" as="alternateBounds" />
          </mxGeometry>
        </mxCell>
        <mxCell id="kR7jz3Ybea96GFAlg0oj-9" value="Node 2" style="shape=partialRectangle;html=1;whiteSpace=wrap;connectable=0;fillColor=none;top=0;left=0;bottom=0;right=0;overflow=hidden;dashed=1;dashPattern=1 4;fontSize=14;" vertex="1" parent="kR7jz3Ybea96GFAlg0oj-7">
          <mxGeometry x="60" width="60" height="60" as="geometry">
            <mxRectangle width="60" height="60" as="alternateBounds" />
          </mxGeometry>
        </mxCell>
        <mxCell id="kR7jz3Ybea96GFAlg0oj-10" value="Node 3" style="shape=partialRectangle;html=1;whiteSpace=wrap;connectable=0;fillColor=none;top=0;left=0;bottom=0;right=0;overflow=hidden;dashed=1;dashPattern=1 4;fontSize=14;" vertex="1" parent="kR7jz3Ybea96GFAlg0oj-7">
          <mxGeometry x="120" width="60" height="60" as="geometry">
            <mxRectangle width="60" height="60" as="alternateBounds" />
          </mxGeometry>
        </mxCell>
        <mxCell id="kR7jz3Ybea96GFAlg0oj-19" value="" style="ellipse;shape=doubleEllipse;whiteSpace=wrap;html=1;aspect=fixed;dashed=1;dashPattern=1 4;fontSize=14;fillColor=#dae8fc;gradientColor=#7ea6e0;gradientDirection=east;strokeColor=#6c8ebf;" vertex="1" parent="1">
          <mxGeometry x="80" y="250" width="200" height="200" as="geometry" />
        </mxCell>
        <mxCell id="kR7jz3Ybea96GFAlg0oj-21" value="" style="ellipse;shape=doubleEllipse;whiteSpace=wrap;html=1;aspect=fixed;dashed=1;dashPattern=1 4;fontSize=14;fillColor=#fff2cc;gradientColor=#ffd966;gradientDirection=east;strokeColor=#d6b656;" vertex="1" parent="1">
          <mxGeometry x="160" y="320" width="90" height="90" as="geometry" />
        </mxCell>
        <mxCell id="kR7jz3Ybea96GFAlg0oj-22" value="&lt;font style=&quot;font-size: 12px&quot;&gt;Applications&lt;/font&gt;" style="text;strokeColor=none;fillColor=none;html=1;fontSize=24;fontStyle=1;verticalAlign=middle;align=center;dashed=1;dashPattern=1 4;" vertex="1" parent="1">
          <mxGeometry x="130" y="270" width="80" height="20" as="geometry" />
        </mxCell>
        <mxCell id="kR7jz3Ybea96GFAlg0oj-40" style="edgeStyle=orthogonalEdgeStyle;rounded=0;orthogonalLoop=1;jettySize=auto;html=1;exitX=1;exitY=0;exitDx=0;exitDy=0;entryX=0.75;entryY=1;entryDx=0;entryDy=0;fontSize=12;" edge="1" parent="1" source="kR7jz3Ybea96GFAlg0oj-23" target="kR7jz3Ybea96GFAlg0oj-4">
          <mxGeometry relative="1" as="geometry" />
        </mxCell>
        <mxCell id="kR7jz3Ybea96GFAlg0oj-41" value="Trigger the corresponding DAG" style="edgeLabel;html=1;align=center;verticalAlign=middle;resizable=0;points=[];fontSize=12;" vertex="1" connectable="0" parent="kR7jz3Ybea96GFAlg0oj-40">
          <mxGeometry x="-0.0687" relative="1" as="geometry">
            <mxPoint as="offset" />
          </mxGeometry>
        </mxCell>
        <mxCell id="kR7jz3Ybea96GFAlg0oj-23" value="&lt;span style=&quot;font-size: 12px&quot;&gt;our App&lt;/span&gt;" style="text;strokeColor=none;fillColor=none;html=1;fontSize=24;fontStyle=1;verticalAlign=middle;align=center;dashed=1;dashPattern=1 4;" vertex="1" parent="1">
          <mxGeometry x="150" y="335" width="90" height="30" as="geometry" />
        </mxCell>
        <mxCell id="kR7jz3Ybea96GFAlg0oj-28" value="" style="endArrow=none;html=1;rounded=0;fontSize=12;exitX=0.5;exitY=0;exitDx=0;exitDy=0;" edge="1" parent="1" source="kR7jz3Ybea96GFAlg0oj-19">
          <mxGeometry width="50" height="50" relative="1" as="geometry">
            <mxPoint x="470" y="360" as="sourcePoint" />
            <mxPoint x="180" y="230" as="targetPoint" />
          </mxGeometry>
        </mxCell>
      </root>
    </mxGraphModel>
  </diagram>
</mxfile>
